<?xml version="1.0" ?><svg id="Layer_1" style="enable-background:new 0 0 100 100;" version="1.1" viewBox="0 0 100 100" xml:space="preserve" xmlns="http://www.w3.org/2000/svg" xmlns:xlink="http://www.w3.org/1999/xlink"><g><path d="M90.031,33.64c0-13.09-10.649-23.74-23.74-23.74c-7.128,0-13.527,3.162-17.882,8.151l-3.742-7.593   c-0.117-0.238-0.324-0.419-0.575-0.505c-0.25-0.085-0.526-0.067-0.764,0.05L10.527,26.169c-0.496,0.244-0.699,0.844-0.455,1.339   l30.574,62.034c0.117,0.238,0.324,0.419,0.575,0.505c0.104,0.036,0.213,0.053,0.322,0.053c0.152,0,0.303-0.035,0.442-0.103   l32.801-16.167c0.238-0.117,0.419-0.324,0.505-0.575c0.085-0.252,0.067-0.526-0.05-0.764l-7.473-15.162   C80.172,56.563,90.031,46.234,90.031,33.64z M24.045,51.335c0.325-0.147,0.653-0.28,0.983-0.379   c0.529-0.159,0.829-0.717,0.669-1.246c-0.159-0.529-0.718-0.828-1.246-0.669c-0.435,0.131-0.864,0.307-1.289,0.502L12.308,27.521   l31.007-15.283l3.718,7.544c-2.816,3.903-4.482,8.688-4.482,13.857c0,4.312,1.161,8.356,3.179,11.845   c-1.004,0.697-4.593,3.479-6.49,8.536c-1.011-0.754-1.894-1.379-2.724-1.925c-0.46-0.303-1.082-0.174-1.385,0.286   c-0.304,0.461-0.175,1.082,0.286,1.385c0.948,0.623,1.962,1.348,3.191,2.279c-0.436,1.769-0.658,3.754-0.513,5.981   c0.481,7.368-1.626,10.745-2.838,12.059L24.045,51.335z M68.072,62.47l4.933,10.008L41.998,87.761L36.19,75.976   c1.481-1.305,4.489-5.092,3.903-14.079c-0.592-9.059,5.389-13.791,6.711-14.723c4.161,5.973,10.992,9.949,18.751,10.187   l1.634,3.316c-1.054,0.536-2.116,1.012-3.166,1.397c-0.519,0.19-0.785,0.765-0.595,1.283c0.148,0.405,0.531,0.656,0.939,0.656   c0.114,0,0.231-0.02,0.344-0.062C65.828,63.543,66.955,63.037,68.072,62.47z M66.291,55.38c-11.987,0-21.74-9.753-21.74-21.74   c0-11.987,9.752-21.74,21.74-21.74c11.987,0,21.74,9.752,21.74,21.74C88.031,45.627,78.278,55.38,66.291,55.38z"/><path d="M60.333,63.107c-1.176,0.223-2.337,0.337-3.453,0.337c-0.002,0-0.004,0-0.006,0L56.56,63.44   c-0.524-0.009-1.008,0.43-1.018,0.982c-0.01,0.552,0.43,1.008,0.982,1.018l0.349,0.003c0.003,0,0.005,0,0.007,0   c1.239,0,2.526-0.125,3.825-0.372c0.542-0.103,0.899-0.627,0.796-1.169C61.399,63.36,60.877,62.999,60.333,63.107z"/><path d="M32.914,50.048c-1.441-0.67-2.771-1.091-4.069-1.288c-0.54-0.082-1.056,0.292-1.139,0.839   c-0.083,0.546,0.293,1.056,0.839,1.139c1.107,0.167,2.259,0.535,3.525,1.124c0.137,0.063,0.28,0.093,0.421,0.093   c0.377,0,0.738-0.214,0.907-0.578C33.631,50.875,33.414,50.281,32.914,50.048z"/><path d="M43.002,56.923c-0.434-0.34-1.063-0.263-1.403,0.173c-0.34,0.435-0.263,1.063,0.173,1.403   c1.2,0.938,2.207,1.711,3.217,2.442c0.177,0.128,0.382,0.19,0.585,0.19c0.31,0,0.616-0.144,0.811-0.414   c0.324-0.447,0.224-1.073-0.224-1.396C45.176,58.608,44.186,57.847,43.002,56.923z"/><path d="M52.848,62.922l-0.259-0.072c-0.973-0.282-2.01-0.739-3.173-1.398c-0.481-0.274-1.091-0.104-1.363,0.377   c-0.272,0.48-0.104,1.091,0.376,1.363c1.3,0.737,2.479,1.254,3.6,1.579l0.303,0.085c0.086,0.023,0.173,0.034,0.258,0.034   c0.442,0,0.846-0.295,0.966-0.743C53.699,63.613,53.382,63.065,52.848,62.922z"/><path d="M66.291,14.63c-10.482,0-19.009,8.527-19.009,19.009c0,10.482,8.527,19.01,19.009,19.01   c10.482,0,19.009-8.528,19.009-19.01C85.3,23.158,76.773,14.63,66.291,14.63z M79.163,44.726l-1.603-1.603   c-0.391-0.391-1.023-0.391-1.414,0c-0.391,0.391-0.391,1.023,0,1.414l1.621,1.621c-2.773,2.545-6.383,4.177-10.371,4.435v-2.215   c0-0.552-0.448-1-1-1c-0.552,0-1,0.448-1,1v2.226c-3.863-0.202-7.387-1.687-10.148-4.053l1.758-1.758   c0.391-0.391,0.391-1.023,0-1.414c-0.391-0.391-1.024-0.391-1.414,0l-1.78,1.78c-2.662-2.882-4.335-6.675-4.497-10.859h2.366   c0.552,0,1-0.448,1-1c0-0.552-0.448-1-1-1H49.35c0.306-3.895,1.928-7.416,4.423-10.135l1.819,1.819   c0.195,0.195,0.451,0.293,0.707,0.293c0.256,0,0.512-0.098,0.707-0.293c0.391-0.391,0.391-1.024,0-1.414l-1.802-1.802   c2.768-2.388,6.308-3.889,10.192-4.092v2.567c0,0.552,0.448,1,1,1c0.552,0,1-0.448,1-1v-2.556c4.008,0.26,7.635,1.907,10.414,4.475   l-1.873,1.874c-0.391,0.391-0.391,1.024,0,1.414c0.195,0.195,0.451,0.293,0.707,0.293c0.256,0,0.512-0.098,0.707-0.293l1.852-1.852   c2.274,2.656,3.74,6.014,4.03,9.703h-2.484c-0.552,0-1,0.448-1,1c0,0.552,0.448,1,1,1h2.518   C83.113,38.276,81.599,41.903,79.163,44.726z"/><path d="M73.856,25.003l-10.463,5.373c-0.186,0.096-0.337,0.247-0.433,0.433l-5.372,10.463c-0.198,0.387-0.125,0.857,0.183,1.164   c0.192,0.192,0.448,0.293,0.707,0.293c0.155,0,0.312-0.036,0.457-0.11l10.463-5.373c0.186-0.096,0.337-0.247,0.433-0.433   l5.373-10.463c0.198-0.387,0.124-0.857-0.183-1.164C74.714,24.878,74.244,24.805,73.856,25.003z M68.198,35.613l-7.41,3.805   l3.805-7.41l7.41-3.805L68.198,35.613z"/></g></svg>