<svg width="337" height="43" viewBox="0 0 337 43" fill="none" xmlns="http://www.w3.org/2000/svg">
<path d="M48.864 0L37.488 33.6H34.896L24.48 3.456L14.016 33.6H11.424L0 0H2.592L12.816 30.24L23.328 0H25.68L36.144 30.288L46.464 0H48.864Z" fill="black"/>
<path d="M83.9044 31.392V33.6H60.7204V0H83.1844V2.208H63.1684V15.456H81.0724V17.616H63.1684V31.392H83.9044Z" fill="black"/>
<path d="M118.414 24.144H98.9258L94.6537 33.6H92.0137L107.47 0H109.918L125.374 33.6H122.734L118.414 24.144ZM117.502 22.08L108.67 2.688L99.8857 22.08H117.502Z" fill="black"/>
<path d="M141.018 2.208H128.922V0H155.562V2.208H143.466V33.6H141.018V2.208Z" fill="black"/>
<path d="M193.793 0V33.6H191.345V17.616H168.881V33.6H166.433V0H168.881V15.456H191.345V0H193.793Z" fill="black"/>
<path d="M233.511 31.392V33.6H210.327V0H232.791V2.208H212.775V15.456H230.679V17.616H212.775V31.392H233.511Z" fill="black"/>
<path d="M270.564 33.6L262.548 22.368C261.364 22.528 260.276 22.608 259.284 22.608H249.684V33.6H247.236V0H259.284C263.508 0 266.82 1.008 269.22 3.024C271.62 5.008 272.82 7.776 272.82 11.328C272.82 13.984 272.132 16.224 270.756 18.048C269.412 19.84 267.476 21.104 264.948 21.84L273.348 33.6H270.564ZM259.284 20.448C262.868 20.448 265.604 19.664 267.492 18.096C269.38 16.496 270.324 14.24 270.324 11.328C270.324 8.416 269.38 6.176 267.492 4.608C265.604 3.008 262.868 2.208 259.284 2.208H249.684V20.448H259.284Z" fill="black"/>
<path d="M296.567 38.5104V42.6H282.599V25.9536H296.25V30.0432H288.071V32.232H295.271V36.0912H288.071V38.5104H296.567Z" fill="black"/>
<path d="M312.034 37.0128V42.6H306.476V37.0128L299.794 25.9536H305.669L309.413 32.1744L313.157 25.9536H318.716L312.034 37.0128Z" fill="black"/>
<path d="M336.892 38.5104V42.6H322.924V25.9536H336.576V30.0432H328.396V32.232H335.596V36.0912H328.396V38.5104H336.892Z" fill="black"/>
</svg>
