<svg width="48" height="34" viewBox="0 0 48 34" fill="none" xmlns="http://www.w3.org/2000/svg">
<path fill-rule="evenodd" clip-rule="evenodd" d="M45 6H39C37.6965 6 36.5842 5.16396 36.1714 4H33C32.448 4 32 4.449 32 5V10H33C34.654 10 36 11.346 36 13V18.4999L45.124 14.698C45.765 14.429 46.496 14.5 47.075 14.887C47.654 15.274 48 15.92 48 16.615V29.385C48 30.08 47.654 30.726 47.076 31.113C46.729 31.344 46.327 31.462 45.923 31.462C45.653 31.462 45.382 31.409 45.125 31.302L36 27.5001V31C36 32.654 34.654 34 33 34H5C3.346 34 2 32.654 2 31V13C2 11.346 3.346 10 5 10H22V7C22 6.449 21.552 6 21 6H1C0.447 6 0 5.552 0 5C0 4.448 0.447 4 1 4H21C22.654 4 24 5.346 24 7V10H30V5C30 3.346 31.346 2 33 2H36.1714C36.5842 0.836042 37.6965 0 39 0H45C46.654 0 48 1.346 48 3C48 4.654 46.654 6 45 6ZM34 25.9677C33.9993 25.9893 33.9993 26.0109 34 26.0324V31C34 31.551 33.552 32 33 32H5C4.448 32 4 31.551 4 31V13C4 12.449 4.448 12 5 12H23H31H33C33.552 12 34 12.449 34 13V19.9677C33.9993 19.9892 33.9993 20.0108 34 20.0324V25.9677ZM36 25.3333L45.894 29.456L46 29.385V16.615L45.509 15.621L45.894 16.544L36 20.6667V25.3333ZM39 2C38.448 2 38 2.449 38 3C38 3.551 38.448 4 39 4H45C45.552 4 46 3.551 46 3C46 2.449 45.552 2 45 2H39ZM8 23C8 25.206 9.794 27 12 27C14.206 27 16 25.206 16 23C16 22.2719 15.8046 21.5887 15.4634 21H22.5366C22.1954 21.5887 22 22.2719 22 23C22 25.206 23.794 27 26 27C28.206 27 30 25.206 30 23C30 20.794 28.206 19 26 19H12C9.794 19 8 20.794 8 23ZM12 21C10.897 21 10 21.897 10 23C10 24.103 10.897 25 12 25C13.103 25 14 24.103 14 23C14 21.897 13.103 21 12 21ZM26 21C24.897 21 24 21.897 24 23C24 24.103 24.897 25 26 25C27.103 25 28 24.103 28 23C28 21.897 27.103 21 26 21Z" fill="#354F52"/>
</svg>
