<svg width="425" height="53" viewBox="0 0 425 53" fill="none" xmlns="http://www.w3.org/2000/svg">
<path fill-rule="evenodd" clip-rule="evenodd" d="M212.306 44.9072C204.663 36.7966 168.898 1.38056 125.999 0.0666089C108.308 -0.47326 89.6483 2.36456 71.6146 5.10709L71.5118 5.12273C42.818 9.50344 15.7213 13.6354 3.74348 1.05353C3.41724 0.707643 2.9863 0.478646 2.51708 0.401841C2.04786 0.325035 1.5664 0.404683 1.14691 0.628508C0.727416 0.852333 0.393181 1.20791 0.195719 1.64044C-0.00174381 2.07296 -0.0514734 2.55843 0.0541943 3.022C0.327053 4.25114 7.00016 33.2494 26.6857 43.3958C35.5796 47.9781 45.6697 47.9468 56.6709 43.3024C57.2644 43.0509 57.84 42.8117 58.417 42.5719C58.7404 42.4375 59.0642 42.303 59.3918 42.166C63.0734 46.2196 75.8375 57.5032 97.641 48.5225C101.604 46.8997 105.503 45.4066 109.367 43.9901C113.13 47.6117 126.795 57.6444 156.308 48.6931C177.565 42.2448 196.637 40.3852 205.15 43.9027C208.515 47.1482 210.433 49.2766 210.524 49.3789C210.84 49.7379 211.267 49.9815 211.737 50.0715C211.926 50.1076 212.117 50.1182 212.306 50.104C212.494 50.1182 212.685 50.1076 212.874 50.0715C213.344 49.9815 213.771 49.7379 214.088 49.3789C214.179 49.2766 216.096 47.1483 219.461 43.9027C227.974 40.3853 247.046 42.2448 268.303 48.6932C297.817 57.6445 311.481 47.6117 315.244 43.9902C319.108 45.4066 323.008 46.8997 326.97 48.5225C348.774 57.5032 361.538 46.2197 365.219 42.166C365.547 42.303 365.871 42.4376 366.195 42.572C366.771 42.8118 367.347 43.0509 367.94 43.3024C378.942 47.9468 389.032 47.9781 397.926 43.3958C417.611 33.2494 424.284 4.25116 424.557 3.02202C424.663 2.55845 424.613 2.07298 424.416 1.64046C424.218 1.20793 423.884 0.852354 423.464 0.628529C423.045 0.404704 422.563 0.325056 422.094 0.401861C421.625 0.478667 421.194 0.707663 420.868 1.05355C408.89 13.6354 381.793 9.50346 353.1 5.12275L352.997 5.10712C334.963 2.36458 316.303 -0.47324 298.613 0.0666297C255.713 1.38058 219.948 36.7966 212.306 44.9072ZM6.17253 8.48708C9.20467 17.3767 16.1172 33.0952 28.6754 39.5514C36.3717 43.5152 45.2072 43.4298 54.9779 39.3168C118.763 12.3915 144.311 11.5868 161.148 13.2116C150.337 8.29433 138.359 4.77132 125.871 4.39119C108.555 3.87001 90.0706 6.685 72.1954 9.40721L72.1488 9.4143C44.8451 13.5772 20.8086 17.2406 6.17253 8.48708ZM166.729 18.219C150.764 16.241 129.089 13.5616 63.6387 40.4027C67.6421 44.3514 78.2018 51.8428 95.9836 44.5149C100.402 42.6959 104.841 41.0108 109.263 39.4162C109.319 39.4112 109.366 39.3875 109.409 39.3654C137.659 29.2039 165.089 23.722 180.129 23.8098C177.561 22.1172 174.867 20.4457 172.06 18.8357C170.309 18.6663 168.548 18.4472 166.729 18.219ZM114.042 42.2833C118.786 45.8595 131.068 51.819 155.052 44.5443C172.425 39.2726 188.152 37.0297 198.828 38.0837C195.649 35.3029 191.924 32.2327 187.689 29.0894C181.218 26.2302 150.629 29.503 114.042 42.2833ZM418.439 8.4871C415.407 17.3767 408.494 33.0952 395.936 39.5515C388.24 43.5152 379.404 43.4298 369.633 39.3168C305.848 12.3915 280.3 11.5868 263.464 13.2117C274.275 8.29435 286.253 4.77134 298.74 4.39121C316.056 3.87003 334.541 6.68501 352.416 9.40723L352.462 9.41432C379.766 13.5772 403.803 17.2406 418.439 8.4871ZM257.883 18.219C273.847 16.2411 295.522 13.5616 360.973 40.4027C356.969 44.3514 346.41 51.8428 328.628 44.5149C324.21 42.6959 319.771 41.0108 315.348 39.4162C315.292 39.4112 315.246 39.3875 315.202 39.3654C286.953 29.2039 259.522 23.722 244.482 23.8098C247.05 22.1172 249.744 20.4457 252.551 18.8357C254.302 18.6663 256.063 18.4472 257.883 18.219ZM310.57 42.2833C305.825 45.8595 293.543 51.819 269.56 44.5443C252.187 39.2726 236.46 37.0297 225.783 38.0838C228.962 35.3029 232.687 32.2327 236.923 29.0894C243.393 26.2303 273.983 29.503 310.57 42.2833Z" fill="#354F52"/>
</svg>
