<svg width="72" height="72" viewBox="0 0 72 72" fill="none" xmlns="http://www.w3.org/2000/svg">
<path fill-rule="evenodd" clip-rule="evenodd" d="M42.1034 2.86633C30.3729 -2.94256 16.1033 1.87435 10.294 13.6058C7.13083 19.9935 7.12478 27.1311 9.66304 33.2477L1.19805 33.2316C0.932849 33.2308 0.678787 33.336 0.490333 33.5227C0.303219 33.7091 0.196871 33.9644 0.196104 34.2296L0.127186 70.7979C0.125736 71.3507 0.573336 71.7988 1.12521 71.7998L70.2842 71.9297C70.5494 71.9305 70.8035 71.8253 70.9919 71.6386C71.0704 71.5613 71.134 71.4712 71.1823 71.3735C71.2498 71.2373 71.2854 71.0865 71.2862 70.9317L71.3542 34.363C71.355 34.0978 71.2498 33.8437 71.063 33.6553C70.8749 33.4673 70.6214 33.3618 70.3562 33.361L53.4526 33.3295C58.2706 21.8738 53.3894 8.45512 42.1034 2.86633ZM28.6783 69.8516C28.6908 69.4952 28.7172 69.1422 28.7749 68.8025C28.8672 68.2579 28.5003 67.7415 27.9552 67.6501C27.4106 67.5578 26.8946 67.9261 26.8028 68.4698C26.7271 68.9178 26.6945 69.3803 26.6806 69.8477L2.12912 69.8018L2.19321 35.2331L10.6036 35.249C12.8516 39.5045 16.4004 43.1209 21.0325 45.4147C24.8967 47.3283 29.0359 48.0824 33.0581 47.8223C33.2371 49.0313 34.1375 53.4822 37.8275 57.4263C36.7032 57.9977 35.7512 58.5116 34.8936 59.0131C34.4179 59.2909 34.2575 59.9055 34.5353 60.3812C34.8135 60.8582 35.4273 61.0182 35.9034 60.7395C36.8824 60.1664 37.982 59.5795 39.3617 58.8912C40.7535 60.067 42.4339 61.1468 44.4939 62.0051C51.3101 64.8438 53.4014 68.2305 54.0411 69.8998L28.6783 69.8516ZM58.1946 35.3385L69.3523 35.359L69.2882 69.9278L56.1497 69.9028C55.6375 67.9965 53.5786 63.6204 45.265 60.1574C36.8841 56.6678 35.2977 49.2081 35.0492 47.6098C42.2483 46.5316 48.8428 42.1744 52.4992 35.3269L56.1959 35.3341C56.2085 36.5165 56.1638 37.6794 56.0429 38.7912C55.9828 39.3407 56.3801 39.8342 56.9286 39.8938C57.3572 39.9409 57.7521 39.7091 57.9332 39.3434C57.9838 39.2413 58.0178 39.1276 58.0303 39.0077C58.1603 37.8256 58.207 36.5911 58.1946 35.3385ZM51.0506 33.7882C45.7312 44.5303 32.663 48.9423 21.921 43.6229C11.1789 38.3035 6.76642 25.2362 12.0863 14.4933C17.4057 3.75122 30.4729 -0.661247 41.2159 4.65862C51.958 9.97804 56.37 23.0462 51.0506 33.7882ZM55.3311 42.5564C55.0091 43.7092 54.596 44.8002 54.1008 45.8003L54.0981 45.8057L53.9552 46.0853C53.7146 46.5509 53.8932 47.1795 54.3834 47.4334C54.8737 47.6873 55.4776 47.4954 55.7315 47.0051L55.8891 46.6937L55.8922 46.6874C56.442 45.5771 56.9011 44.3683 57.2562 43.0946C57.4044 42.5632 57.0933 42.0107 56.5619 41.8625C56.0309 41.7134 55.4757 42.021 55.3311 42.5564ZM28.5008 64.4073C29.2534 63.3315 30.2209 62.3265 31.4608 61.3325C31.8914 60.9878 32.52 61.0569 32.8665 61.4885C33.1177 61.8015 33.1493 62.2199 32.982 62.5578C32.9194 62.6841 32.8291 62.799 32.7118 62.8938C31.6222 63.7669 30.7812 64.636 30.1403 65.5539C29.8236 66.0064 29.1997 66.117 28.7473 65.8003C28.2939 65.4832 28.1877 64.8548 28.5008 64.4073ZM42.0985 55.343C41.6012 55.5811 41.391 56.1789 41.6309 56.6771C41.8698 57.1748 42.4668 57.3845 42.9649 57.1447C44.338 56.4855 45.4776 55.9262 46.5809 55.3454C46.7742 55.2436 46.9207 55.0874 47.0108 54.9055C47.1484 54.6277 47.1551 54.2896 46.9997 53.995C46.7429 53.5063 46.1375 53.3181 45.6493 53.5763C44.5732 54.1426 43.4519 54.692 42.0985 55.343ZM51.6643 49.3819L51.8437 49.1818C52.2088 48.7667 52.8406 48.7258 53.2557 49.0909C53.6039 49.3973 53.689 49.8902 53.4928 50.2863C53.4551 50.3625 53.4067 50.4356 53.3479 50.5024L53.1373 50.7362C52.3485 51.5966 51.362 52.4237 50.1247 53.2616C49.6679 53.5711 49.0458 53.4505 48.7364 52.9937C48.426 52.5365 48.5444 51.9145 49.0034 51.605C50.1101 50.8552 50.9798 50.1287 51.6643 49.3819ZM14.5328 15.7047C9.8812 25.098 13.7386 36.5234 23.132 41.175C32.5254 45.8265 43.9516 41.9696 48.6032 32.5762C53.2548 23.1828 49.3964 11.757 40.0031 7.10543C30.6106 2.45432 19.1843 6.31129 14.5328 15.7047ZM47.2152 17.5251L45.0673 18.2503C44.5434 18.4271 44.263 18.9935 44.4399 19.5174C44.6167 20.0413 45.1831 20.3218 45.707 20.1449L47.879 19.4116C48.9291 23.026 48.7896 26.9853 47.2511 30.6736L45.2661 29.6906C44.7715 29.4457 44.1712 29.6483 43.9262 30.143C43.6813 30.6377 43.8839 31.238 44.3786 31.4829L46.3734 32.4707C44.4781 35.8429 41.5835 38.3419 38.238 39.7662L37.4427 37.4107C37.2659 36.8868 36.6995 36.6063 36.1756 36.7832C35.6517 36.9601 35.3708 37.5273 35.5481 38.0503L36.3533 40.4354C32.5894 41.542 28.4479 41.358 24.6265 39.6465L25.6765 37.5262C25.9214 37.0315 25.7188 36.4312 25.2241 36.1863C24.7294 35.9413 24.1291 36.144 23.8842 36.6387L22.8498 38.7276C19.4951 36.7249 17.0595 33.7088 15.7301 30.2664L18.1674 29.4435C18.4287 29.3553 18.6301 29.1693 18.7437 28.9399C18.8573 28.7105 18.8831 28.4376 18.7949 28.1763C18.618 27.6524 18.0508 27.3715 17.5278 27.5488L15.1132 28.364C14.2016 24.8238 14.4274 20.9854 15.9691 17.4147L18.2695 18.5538C18.7642 18.7988 19.3644 18.5961 19.6094 18.1014C19.8544 17.6068 19.6517 17.0065 19.157 16.7615L16.8665 15.6272C18.8781 12.1509 21.9636 9.63146 25.4981 8.28067L26.3463 10.7908C26.5232 11.3147 27.0904 11.5956 27.6134 11.4183C27.8747 11.33 28.0761 11.1441 28.1897 10.9147C28.3034 10.6853 28.3291 10.4124 28.2409 10.1511L27.4031 7.66959C30.7924 6.8104 34.4522 6.98683 37.8868 8.364L36.7845 10.59C36.5395 11.0847 36.7422 11.685 37.2368 11.9299C37.7315 12.1749 38.3318 11.9722 38.5767 11.4775L39.6941 9.22106C43.188 11.123 45.7664 14.0893 47.2152 17.5251ZM27.3574 25.2893L27.1855 13.5286C27.1803 13.093 27.4543 12.7042 27.8665 12.5658C28.2779 12.4269 28.7319 12.5691 28.9908 12.9183L35.9828 22.3764C36.1069 22.545 36.1752 22.7473 36.1787 22.9566L36.3506 34.7173C36.3525 34.8801 36.3151 35.0367 36.2463 35.1756C36.1314 35.4077 35.9273 35.5923 35.67 35.6792C35.2582 35.819 34.8046 35.6758 34.5457 35.3266L27.5533 25.8694C27.4292 25.7009 27.3609 25.4985 27.3574 25.2893ZM34.3043 31.6362L34.1828 23.3073L29.2309 16.6092L29.3524 24.9381L34.3043 31.6362Z" fill="#354F52"/>
</svg>
