<svg width="216" height="54" viewBox="0 0 216 54" fill="none" xmlns="http://www.w3.org/2000/svg">
<path d="M1.30049 47.3506C2.92347 45.5179 41.6327 2.37902 89.0632 0.926289C106.787 0.385394 125.485 3.23503 143.55 5.98241C172.244 10.3631 199.341 14.4951 211.318 1.91321C211.645 1.56732 212.076 1.33833 212.545 1.26152C213.014 1.18472 213.495 1.26436 213.915 1.48819C214.334 1.71201 214.669 2.06759 214.866 2.50012C215.064 2.93264 215.113 3.41811 215.008 3.88168C214.735 5.11082 208.062 34.1091 188.376 44.2554C179.482 48.8377 169.392 48.8065 158.391 44.162C157.465 43.7696 156.582 43.4071 155.67 43.0257C151.988 47.0793 139.224 58.3628 117.421 49.3821C113.458 47.7594 109.559 46.2663 105.694 44.8498C101.931 48.4714 88.2671 58.5041 58.7539 49.5528C37.4964 43.1045 18.4248 41.2449 9.9118 44.7624C6.54703 48.0079 4.6292 50.1363 4.53817 50.2385C4.22152 50.5975 3.79459 50.8412 3.32444 50.9312C2.85429 51.0212 2.36756 50.9525 1.94069 50.7359C1.77672 50.6513 1.62359 50.5473 1.48463 50.426C1.26968 50.2367 1.09431 50.0068 0.968623 49.7495C0.842937 49.4921 0.769411 49.2125 0.752293 48.9266C0.735176 48.6408 0.774808 48.3543 0.86889 48.0838C0.962971 47.8133 1.10966 47.5642 1.30049 47.3506ZM186.386 40.4111C198.945 33.9548 205.857 18.2363 208.889 9.34676C194.253 18.1002 170.217 14.4369 142.913 10.274C125.023 7.54956 106.522 4.72924 89.1909 5.25087C76.7033 5.631 64.7251 9.15401 53.9142 14.0713C70.7507 12.4465 96.2985 13.2512 160.084 40.1765C169.855 44.2894 178.69 44.3748 186.386 40.4111ZM151.423 41.2623C85.9731 14.4213 64.298 17.1007 48.3332 19.0787C46.5134 19.3068 44.7529 19.526 43.0021 19.6954C40.1948 21.3054 37.5009 22.9769 34.933 24.6694C49.9725 24.5817 77.4032 30.0636 105.653 40.2251C105.696 40.2472 105.743 40.2709 105.799 40.2759C110.221 41.8705 114.66 43.5556 119.078 45.3745C136.86 52.7025 147.42 45.2111 151.423 41.2623ZM60.0102 45.4039C83.9936 52.6787 96.2759 46.7192 101.02 43.143C64.4331 30.3627 33.8438 27.0899 27.3731 29.9491C23.138 33.0924 19.4129 36.1626 16.2334 38.9434C26.9102 37.8893 42.6372 40.1323 60.0102 45.4039Z" fill="#354F52"/>
</svg>
